HIERARCHY
ROOT Hips
{
  OFFSET -187.679 86.5976 -156.378
  CHANNELS 6 Xposition Yposition Zposition Zrotation Xrotation Yrotation
  JOINT LeftUpLeg
  {
    OFFSET 8.64259 1.95398 -2.38835
    CHANNELS 3 Zrotation Xrotation Yrotation
    JOINT LeftLeg
    {
      OFFSET 43.7702 0 0
      CHANNELS 3 Zrotation Xrotation Yrotation
      JOINT LeftFoot
      {
        OFFSET 40.6238 0 0
        CHANNELS 3 Zrotation Xrotation Yrotation
        JOINT LeftToeBase
        {
          OFFSET 12.7242 0 0
          CHANNELS 3 Zrotation Xrotation Yrotation
          End Site
          {
            OFFSET 0 0 0
          }
        }
      }
    }
  }
  JOINT RightUpLeg
  {
    OFFSET -8.2249 1.95398 -2.59336
    CHANNELS 3 Zrotation Xrotation Yrotation
    JOINT RightLeg
    {
      OFFSET 43.5653 0 0
      CHANNELS 3 Zrotation Xrotation Yrotation
      JOINT RightFoot
      {
        OFFSET 40.6238 0 0
        CHANNELS 3 Zrotation Xrotation Yrotation
        JOINT RightToeBase
        {
          OFFSET 12.7242 0 0
          CHANNELS 3 Zrotation Xrotation Yrotation
          End Site
          {
            OFFSET 0 0 0
          }
        }
      }
    }
  }
  JOINT Spine
  {
    OFFSET 0.165834 0.87714 6.61349
    CHANNELS 3 Zrotation Xrotation Yrotation
    JOINT Spine1
    {
      OFFSET 7.38963 1.71661e-005 0
      CHANNELS 3 Zrotation Xrotation Yrotation
      JOINT Spine2
      {
        OFFSET 11.9445 1.14441e-005 0
        CHANNELS 3 Zrotation Xrotation Yrotation
        JOINT Spine3
        {
          OFFSET 14.7254 4.19617e-005 0
          CHANNELS 3 Zrotation Xrotation Yrotation
          JOINT Spine4
          {
            OFFSET 10.9679 0 0
            CHANNELS 3 Zrotation Xrotation Yrotation
            JOINT RightShoulder
            {
              OFFSET 2.46616 -1.6653 3.69651
              CHANNELS 3 Zrotation Xrotation Yrotation
              JOINT RightArm
              {
                OFFSET 13.0012 0 0
                CHANNELS 3 Zrotation Xrotation Yrotation
                JOINT RightForeArm
                {
                  OFFSET 28.7848 1.52588e-005 0
                  CHANNELS 3 Zrotation Xrotation Yrotation
                  JOINT RightHand
                  {
                    OFFSET 26.5688 1.52588e-005 0
                    CHANNELS 3 Zrotation Xrotation Yrotation
                    End Site
                    {
                      OFFSET 0 0 0
                    }
                  }
                }
              }
            }
            JOINT LeftShoulder
            {
              OFFSET 2.38034 -1.29275 -3.7523
              CHANNELS 3 Zrotation Xrotation Yrotation
              JOINT LeftArm
              {
                OFFSET 16.3182 6.10352e-005 0
                CHANNELS 3 Zrotation Xrotation Yrotation
                JOINT LeftForeArm
                {
                  OFFSET 27.0901 0 0
                  CHANNELS 3 Zrotation Xrotation Yrotation
                  JOINT LeftHand
                  {
                    OFFSET 24.5451 1.52588e-005 0
                    CHANNELS 3 Zrotation Xrotation Yrotation
                    End Site
                    {
                      OFFSET 0 0 0
                    }
                  }
                }
              }
            }
            JOINT Neck
            {
              OFFSET 5.0226 -0.0266342 0
              CHANNELS 3 Zrotation Xrotation Yrotation
              JOINT Head
              {
                OFFSET 6.69363 2.86102e-005 0
                CHANNELS 3 Zrotation Xrotation Yrotation
                End Site
                {
                  OFFSET 0 0 0
                }
              }
            }
          }
        }
      }
    }
  }
}
MOTION
Frames:	12
Frame Time:	0.0416667
10.6196 97.0557 -3.33102 -99.1605 -40.2456 -103.512 179.502 18.7081 83.6293 -17.6876 35.4203 6.1703 64.4011 1.97067 -4.59478 22.1197 -6.61374 9.80588 171.815 -17.76 85.9151 -27.2852 -31.8627 -4.57115 76.6629 -7.16703 -2.66871 19.6655 -4.16408 7.17965 1.84857 8.27447 -89.4298 10.3143 3.9438 0.791617 -1.35075 3.97482 0.617003 -23.9242 3.52336 1.94159 -3.91159 3.52337 1.94158 83.7546 -47.6188 -110.904 13.4209 -22.7135 -22.4388 -25.0556 -15.2986 -33.8773 -8.87931 -0.104035 -3.83659 -88.894 -50.0925 80.624 -35.2352 10.3201 17.3813 8.14762 -11.7878 -14.603 -4.38831 -0.137425 -1.28648 2.62096 -3.30752 -0.683481 9.76213 -3.67297 -4.97407 
2.88607 96.7022 3.73064 -99.8076 -33.6031 -105.534 179.722 17.249 81.011 -29.1794 34.0889 6.63993 63.6382 1.79246 -4.27743 21.4794 -5.67026 6.82524 171.041 -18.9282 82.3853 -38.0619 -34.0274 -10.4217 67.4887 -3.22557 -2.03391 25.7168 -4.30942 11.945 2.09708 8.26809 -89.2814 10.3214 4.5067 1.03727 -1.34201 4.54796 0.837512 -23.9255 3.98636 2.34558 -3.91289 3.98637 2.34557 85.7511 -46.4263 -108.212 22.4597 -23.4945 -18.0823 -16.8055 -20.3679 -16.8248 -10.0613 -0.133389 -3.61361 -90.0513 -52.5507 79.4183 -30.9947 8.44799 14.3496 7.96658 -13.4102 -16.0724 -2.94907 -0.100936 -1.36883 3.69676 -4.23298 -0.667617 8.1886 -4.57778 -5.74953 
-4.21408 96.7602 9.05516 -100.099 -27.1328 -106.715 -178.542 13.3246 79.1953 -36.4081 29.2241 5.93351 71.8519 5.61045 -1.70465 13.4603 -7.25817 2.14732 170.387 -10.9086 77.8721 -54.0689 -30.8367 -10.759 53.1468 1.40878 1.55804 30.7351 -0.661014 3.73194 1.65544 8.24109 -88.8958 10.3593 3.80337 1.86239 -1.30718 3.88162 1.69302 -23.8631 3.06793 2.91974 -3.85044 3.06794 2.91974 83.4098 -48.7269 -111.037 25.1965 -27.2712 -14.4229 -9.29207 -19.9461 -4.97466 -8.47352 0.0366597 -5.80064 -89.5654 -50.2715 79.6607 -28.7337 12.1988 9.02054 7.42405 -14.08 -14.0525 -3.65303 -0.114728 -1.7109 3.9546 -3.86281 -3.72348 8.47492 -3.55674 -4.33112 
-10.358 97.4843 12.1989 -99.1231 -19.2237 -104.16 -177.226 7.44432 80.1049 -36.5389 22.4173 6.04921 76.3813 7.40037 -0.675612 12.346 -6.79694 0.243389 174.606 1.78011 80.1862 -65.5561 -15.0517 -8.67763 60.3531 -1.19463 0.864705 26.8327 -1.38637 3.55206 1.24536 8.23282 -88.9523 10.3817 2.96069 1.82173 -1.28699 3.03802 1.68959 -23.8296 2.27648 2.62732 -3.81691 2.27649 2.62731 83.6724 -49.0644 -110.519 26.2489 -28.1597 -9.4702 -12.5807 -19.5272 -11.6621 -8.30166 0.00227756 -5.33336 -89.7285 -48.7388 79.0885 -22.6522 17.6533 -0.696645 7.12945 -16.1755 -7.63645 -3.8869 -0.118375 -1.75894 4.2637 -2.78731 -5.18604 8.71757 -2.17792 -3.63987 
-16.4298 98.7074 13.9316 -98.0606 -12.1004 -98.8876 -175.65 0.791337 83.9248 -32.5887 17.3808 6.70875 77.7014 6.67855 -3.13752 16.6928 -7.9038 6.71672 177.718 12.2811 86.701 -62.0303 -2.32196 -5.52648 68.3387 -3.92792 -1.25614 25.9454 -1.25952 2.63746 0.700492 8.1887 -89.3395 10.4896 1.6986 1.16297 -1.18068 1.74811 1.08708 -23.7172 1.27059 1.61967 -3.70459 1.27059 1.61967 85.076 -48.3849 -108.611 25.454 -27.1348 -7.12839 -17.5031 -17.3944 -20.677 -8.0846 -0.0236057 -4.94975 -89.4036 -46.7249 79.1476 -15.8558 13.9565 -6.50355 7.46643 -15.9185 -9.44322 -3.53853 -0.108723 -1.94588 1.85659 -0.96229 -5.66726 10.0736 -0.389545 -2.98394 
-22.6093 98.9496 15.1142 -96.6686 -6.43743 -94.2996 -174.036 -4.67121 87.3306 -28.2025 13.0884 6.39119 79.4844 7.04291 -3.70641 17.9852 -8.32091 8.85969 178.821 20.0517 92.9513 -47.0039 -0.660643 -2.269 65.6633 -2.95709 -0.328251 25.6694 -1.49143 3.19146 0.211021 8.13844 -89.607 10.5946 0.601079 0.727037 -1.07642 0.632519 0.699868 -23.6104 0.354797 0.87406 -3.59777 0.354798 0.874063 84.2542 -50.1491 -109.275 23.0131 -23.1913 -5.48624 -21.8026 -18.0926 -26.9867 -8.54923 -0.116815 -3.60493 -88.3297 -43.3426 80.1064 -10.2197 6.80932 -9.89466 8.24905 -14.345 -15.0232 -0.950516 -0.0739509 -3.15598 1.59238 0.644166 -7.77797 10.6841 1.73818 -0.774246 
-29.4224 98.3264 16.0511 -95.4705 -4.51401 -91.814 -172.574 -10.3919 89.7971 -23.5006 11.0288 6.24709 82.3019 7.96979 -4.69924 16.1204 -9.50409 9.31354 179.313 22.4309 95.7009 -26.2741 -1.00521 0.354647 63.1129 -1.96841 -0.728362 22.9789 -2.29159 4.03219 -0.174186 8.09613 -89.7674 10.6824 -0.239642 0.484655 -0.988606 -0.218091 0.49473 -23.5234 -0.374248 0.390224 -3.51073 -0.374227 0.390224 84.6111 -51.1478 -108.418 23.9996 -17.409 -3.80399 -20.7247 -14.1881 -25.3307 -11.8349 -0.273889 -2.31122 -88.0711 -40.7342 79.9573 -6.10517 1.38618 -15.7188 8.10375 -14.9747 -17.2607 1.22924 -0.0491394 -2.99064 2.23274 0.321364 -9.03854 10.5841 1.78517 0.262147 
-37.8756 97.126 17.1363 -95.4402 -6.82974 -90.2738 -170.379 -16.6104 92.9278 -20.9376 13.9615 7.19251 82.2325 9.52956 -1.88833 18.9519 -5.95616 4.61678 179.648 22.2645 95.7816 -17.3354 0.529799 0.874108 64.7563 -2.23651 -1.10222 20.4125 -2.82084 4.08822 -0.576211 8.11243 -89.9818 10.6491 -1.13923 0.138885 -1.02135 -1.132 0.188878 -23.5603 -1.1283 -0.209965 -3.54769 -1.12828 -0.209972 83.9966 -52.3592 -108.935 25.3993 -17.3626 -0.740921 -18.3428 -14.8961 -19.6706 -9.57681 -0.0559756 -5.02022 -88.9382 -41.3469 78.6571 -5.19802 -2.17048 -23.3426 8.44745 -13.8982 -18.5394 2.15423 -0.0521946 -3.33147 3.67717 -0.902788 -9.60774 9.29022 0.812205 0.404195 
-48.3623 96.2975 17.8704 -96.3971 -9.09221 -87.5929 -165.696 -21.3772 99.7961 -21.8819 19.1996 8.24809 76.7718 8.00868 -0.779508 32.0985 -1.24149 8.68073 178.251 22.465 97.5245 -26.3409 2.33678 2.50509 60.9214 -0.275088 -0.912751 23.7036 -1.42191 1.87843 -0.716104 8.11821 -90.3103 10.6362 -1.56896 -0.47384 -1.03379 -1.58829 -0.404318 -23.5744 -1.35403 -0.923542 -3.56177 -1.354 -0.923537 83.9197 -52.7227 -108.931 28.4324 -18.7023 1.8628 -14.6118 -16.6876 -11.4638 -4.38875 0.0259698 -6.2897 -89.7689 -42.6667 77.6206 -8.80195 0.470447 -26.972 11.178 -6.17765 -23.7393 -0.695662 -0.0804413 -4.61004 3.93662 -1.89809 -10.6184 8.32226 0.0986194 1.18505 
-58.7423 96.1025 18.4687 -97.7622 -8.51907 -86.1434 -164.963 -18.4565 103.232 -36.026 22.8371 8.72788 65.4285 4.05612 1.6361 27.5665 -2.18194 5.05163 177.027 20.3776 99.3591 -36.682 2.131 3.78512 64.2119 -1.08247 -0.687981 18.5445 -2.40811 2.05314 -0.690463 8.0522 -90.4257 10.7647 -1.57123 -0.701335 -0.905403 -1.60061 -0.631494 -23.4446 -1.28783 -1.14117 -3.43193 -1.28785 -1.14118 84.969 -51.8472 -107.669 30.9716 -17.0754 3.10561 -14.0789 -15.676 -9.39276 -3.93893 0.0512001 -7.58964 -90.1587 -44.1308 77.3561 -12.7678 9.05393 -23.1547 15.8409 2.84806 -27.4686 -5.25386 -0.0417746 -5.97616 2.53441 -1.97414 -9.21269 8.28229 -0.458232 -0.120044 
-67.0035 96.8118 18.9291 -99.5587 -8.64026 -84.4196 -168.293 -3.73849 104.485 -62.3028 26.6374 11.1827 56.41 -0.807931 0.283429 9.15806 -7.07661 -1.83592 177.923 13.6135 102.03 -37.9992 2.61022 3.885 68.6771 -2.61754 -2.48975 20.2212 -2.17789 2.25806 -0.540601 8.33261 -90.6265 10.2001 -1.36308 -1.12735 -1.47051 -1.41137 -1.06628 -24.0051 -0.961272 -1.48486 -3.9924 -0.961295 -1.48486 84.669 -51.6319 -108.179 28.245 -17.0391 -0.0227705 -16.0726 -15.5139 -13.8859 -6.07163 0.0306041 -6.11032 -90.332 -45.1921 77.3426 -17.8126 15.1218 -19.6894 14.485 4.7428 -20.8603 -4.78986 -0.0768625 -4.63672 3.64664 -2.08625 -7.93377 8.83081 -0.631801 0.497915 
-73.7084 98.2455 19.9927 -98.9487 -7.86487 -86.4214 -173.166 10.4983 98.9286 -71.0335 23.9128 9.68736 65.0033 3.396 2.3748 9.80987 -7.17181 -1.06179 178.245 7.89035 100.169 -34.8849 1.81068 2.64711 71.261 -3.38096 -2.01731 21.0224 -2.12708 2.51435 -0.181617 8.31987 -90.4084 10.2343 -0.548471 -0.764484 -1.43683 -0.581569 -0.739617 -23.97 -0.29336 -0.893963 -3.95736 -0.293382 -0.893968 84.5548 -50.9837 -108.554 23.8623 -17.2814 -5.71505 -18.2929 -16.8164 -18.3426 -8.42004 -0.075802 -4.22712 -90.4849 -45.6876 77.2245 -22.6394 22.0505 -14.1811 9.77984 -1.27241 -11.3171 -4.50225 -0.078834 -4.47189 1.53502 -2.59823 -7.36395 9.87912 -1.38166 0.382539 
